<svg width="15" height="16" viewBox="0 0 15 16" fill="none" xmlns="http://www.w3.org/2000/svg">
<path d="M6.36984 0.000204419C4.33008 0.00108143 2.41407 0.984406 1.21588 2.64513C0.0175635 4.30603 -0.318343 6.44354 0.312368 8.39506C0.943258 10.3468 2.46423 11.8769 4.40425 12.5109C6.34413 13.1448 8.46841 12.8062 10.1187 11.5999L13.2926 14.7935C13.5452 15.0477 13.9136 15.1469 14.2587 15.054C14.6039 14.9608 14.8733 14.6897 14.9659 14.3423C15.0583 13.995 14.9597 13.6244 14.7071 13.3703L11.5332 10.1767C12.4602 8.89461 12.8818 7.31229 12.7167 5.73558C12.5514 4.15887 11.8112 2.69986 10.6389 1.6404C9.46673 0.580936 7.94534 -0.00329808 6.36984 0.000204419ZM6.36984 10.813C5.2099 10.813 4.09753 10.3495 3.27733 9.52417C2.45713 8.69888 1.99641 7.57961 1.99641 6.41247C1.99641 5.24533 2.45713 4.12606 3.27733 3.30077C4.09753 2.47548 5.2099 2.01189 6.36984 2.01189C7.52978 2.01189 8.64215 2.47548 9.46234 3.30077C10.2825 4.12606 10.7433 5.24533 10.7433 6.41247C10.7419 7.57907 10.2808 8.69767 9.46078 9.5226C8.64094 10.3477 7.52929 10.8116 6.36984 10.813Z" fill="#483A46"/>
</svg>
